<svg width="244" height="240" fill="none" xmlns="http://www.w3.org/2000/svg"><ellipse opacity=".1" cx="101.249" cy="228.975" rx="78.869" ry="7.76" fill="#000"/><path d="M66.302 162.702a21.778 21.778 0 00-8.674 1.154 21.548 21.548 0 00-7.486 4.469 21.166 21.166 0 00-5.054 7.041 20.897 20.897 0 00-1.785 8.443c0 4.221-3.358 6.56-7.268 7.668a4.015 4.015 0 00-1.937 1.254 3.907 3.907 0 00-.494 4.345c.36.692.92 1.264 1.608 1.645 10.41 5.876 21.157 6.268 29.563 6.268 5.56-.004 10.903-2.133 14.903-5.94 4-3.806 6.346-8.993 6.543-14.469a20.978 20.978 0 00-5.482-14.891c-3.716-4.077-8.89-6.575-14.437-6.969v-.018z" fill="#0083D7"/><path d="M71.516 219.869v-33.243c0-4.878 3.85-9.044 8.79-9.208a9.215 9.215 0 013.592.584 9.116 9.116 0 013.072 1.922 8.971 8.971 0 012.064 2.955 8.865 8.865 0 01.724 3.515v33.708a8.859 8.859 0 01-.723 3.506 8.965 8.965 0 01-2.057 2.95 9.146 9.146 0 01-3.062 1.924 9.226 9.226 0 01-3.582.591c-4.969-.159-8.818-4.326-8.818-9.204z" fill="#F9F1DA"/><path d="M71.516 216.468v3.67c0 4.883 3.85 9.049 8.79 9.213a9.255 9.255 0 003.603-.597 9.156 9.156 0 003.076-1.94 8.993 8.993 0 002.06-2.973 8.887 8.887 0 00.713-3.53v-3.843H71.516z" fill="#495059"/><path d="M105.067 219.865v-33.234c0-4.883 3.849-9.049 8.791-9.209a9.222 9.222 0 013.581.592 9.13 9.13 0 013.063 1.923 8.982 8.982 0 012.056 2.95 8.859 8.859 0 01.724 3.507v33.703a8.866 8.866 0 01-.723 3.508 8.95 8.95 0 01-2.056 2.951 9.11 9.11 0 01-3.063 1.925 9.209 9.209 0 01-3.582.592c-4.942-.164-8.791-4.331-8.791-9.208z" fill="#F9F1DA"/><path d="M105.067 216.468v3.67c0 4.883 3.849 9.049 8.791 9.213a9.268 9.268 0 003.593-.605 9.168 9.168 0 003.067-1.942 9.005 9.005 0 002.053-2.969 8.9 8.9 0 00.711-3.524v-3.843h-18.215z" fill="#495059"/><path d="M52.931 28.76c-25.82 4.485-39.487 24.877-35.624 46.426.267 1.489.627 2.96 1.078 4.404a8.697 8.697 0 01.203 4.156 8.762 8.762 0 01-1.753 3.786c-5.19 6.678-7.633 14.715-6.19 22.839 1.74 9.715-.833 19.558-8.328 24.03a4.909 4.909 0 00-1.699 1.77 4.826 4.826 0 000 4.72c.406.722.99 1.331 1.7 1.77 19.796 12.345 84.97 14.588 97.156-28.492 0 0 9.508-17.661 3.044-53.794C98.674 38.83 82.125 23.69 52.931 28.76z" fill="#0083D7"/><path d="M111.772 51.143c-3.567 9.647 1.031 13.937 7.767 16.353 6.737 2.416 13.052 2.042 16.614-7.609 3.563-9.65 2.776-24.285-3.941-26.7-6.718-2.417-16.878 8.305-20.44 17.956z" fill="#F0E4C0"/><path d="M158.116 176.565c-4.683.012-9.33-.8-13.723-2.398-9.165-3.405-15.105-10.029-16.738-18.6a8.939 8.939 0 011.497-6.713 9.191 9.191 0 015.855-3.738 9.285 9.285 0 016.83 1.398 9.037 9.037 0 013.861 5.725c.157.844.583 3.082 4.576 4.764 5.413 2.28 12.269 1.4 13.879.392a9.28 9.28 0 016.775-1.834 9.214 9.214 0 016.108 3.423 8.954 8.954 0 011.862 6.676 9.02 9.02 0 01-3.475 6.018c-4.15 3.223-10.553 4.887-17.307 4.887z" fill="#F5EBCD"/><path d="M160.683 176.483c5.783-.374 11.104-2.006 14.75-4.805a9.02 9.02 0 003.474-6.018 8.954 8.954 0 00-1.862-6.676 9.212 9.212 0 00-6.107-3.423 9.285 9.285 0 00-6.776 1.834c-.879.552-3.326 1.063-6.245 1.044l2.766 18.044z" fill="#495059"/><path d="M146.309 157.368c0 22.311-14.583 40.391-47.029 40.391-32.446 0-47.029-18.08-47.029-40.391s21.056-40.364 47.029-40.364c25.973 0 47.029 18.062 47.029 40.364z" fill="#F9F1DA"/><path d="M99.28 197.759c9.521 0 17.488-1.564 24.016-4.331-63.29-3.734-50.17-62.551-27.296-76.346-24.442 1.45-43.744 18.933-43.744 40.286-.005 22.311 14.583 40.391 47.024 40.391z" fill="#F0E4C0"/><path d="M176.39 61.031C155.737 46.8 118.623 42.746 78.627 49.694a48.577 48.577 0 00-17.511 6.71 47.853 47.853 0 00-13.572 12.8 47.104 47.104 0 00-7.568 16.946 46.767 46.767 0 00-.41 18.509 47.042 47.042 0 006.808 17.255 47.765 47.765 0 0012.992 13.374 48.52 48.52 0 0017.198 7.457 48.866 48.866 0 0018.783.404c28.93-5.015 73.058-7.549 90.092-31.52a36.03 36.03 0 005.8-12.973 35.81 35.81 0 00.317-14.173 36.017 36.017 0 00-5.215-13.213 36.56 36.56 0 00-9.951-10.239z" fill="#F9F1DA"/><path d="M54.134 61.752c-7.581 6.982-12.67 16.192-14.507 26.256a46.822 46.822 0 004.31 29.593c4.636 9.148 12.148 16.576 21.416 21.176a48.776 48.776 0 0030.018 4.349c19.5-3.387 45.913-5.639 66.274-14.091C58.298 154.45 45.77 92.907 54.135 61.752z" fill="#F5EBCD"/><path d="M142.935 120.793a3.605 3.605 0 01-1.96-.578 3.536 3.536 0 01-1.317-1.543 3.483 3.483 0 01.672-3.806 17.452 17.452 0 019.716-5.169c4.164-.725 7.444-.725 10.044 0 .464.113.901.318 1.284.601.382.283.704.639.944 1.046a3.484 3.484 0 01-.295 3.97 3.572 3.572 0 01-1.089.899 3.623 3.623 0 01-2.773.267c-1.046-.287-3.091-.492-6.875.164a10.357 10.357 0 00-5.751 3.059 3.57 3.57 0 01-2.6 1.09zM81.478 83.967a3.608 3.608 0 01-2.296-.827 3.513 3.513 0 01-1.22-2.086l-.852-4.755a3.472 3.472 0 01.573-2.652c.269-.383.612-.71 1.009-.962a3.608 3.608 0 012.71-.475c.46.101.897.291 1.283.56.386.267.714.608.966 1.002.252.393.422.832.5 1.291l.852 4.755c.09.507.067 1.028-.068 1.525-.136.498-.38.96-.716 1.354a3.576 3.576 0 01-1.229.93c-.474.218-.99.33-1.512.33v.01zM139.605 73.865a3.61 3.61 0 01-2.296-.827 3.509 3.509 0 01-1.22-2.087l-.852-4.754a3.484 3.484 0 01.594-2.634 3.582 3.582 0 012.309-1.449 3.62 3.62 0 012.673.585 3.518 3.518 0 011.47 2.276l.847 4.755a3.472 3.472 0 01-.59 2.631 3.547 3.547 0 01-1.007.95 3.598 3.598 0 01-1.928.553z" fill="#495059"/><path d="M70.484 12.553l-6.962 6.018a14.52 14.52 0 01-7.32 3.364l-9.15 1.368a14.482 14.482 0 00-9.099 5.195 14.082 14.082 0 00-3.107 9.899l1.634 22.466 69.985-32.158-16.42-15.673a14.539 14.539 0 00-9.685-4.005 14.56 14.56 0 00-9.876 3.526z" fill="#A38A80"/><path d="M51.82 22.6l-4.77.721a14.486 14.486 0 00-9.09 5.19 14.087 14.087 0 00-3.114 9.886l1.633 22.466L66.426 47.1C53.921 43.84 51.224 31.12 51.821 22.6z" fill="#917B71"/><path d="M35.568 48.29l.925 12.573 69.972-32.158-9.189-8.771L35.568 48.29z" fill="#FACE7C"/><path d="M55.472 39.145L35.578 48.29l.925 12.573L66.45 47.1c-4.583-1.116-8.53-3.977-10.978-7.955z" fill="#F0C16A"/><path d="M115.384 39.537l-76.217 35.02a6.675 6.675 0 01-7.241-1.097 6.501 6.501 0 01-1.521-2.044l-.232-.487a6.414 6.414 0 01-.217-4.965 6.538 6.538 0 013.405-3.665l76.217-35.026a6.673 6.673 0 017.242 1.1 6.515 6.515 0 011.521 2.046l.231.488a6.417 6.417 0 01.221 4.966 6.488 6.488 0 01-1.334 2.166 6.584 6.584 0 01-2.075 1.498z" fill="#A38A80"/><path d="M67.144 46.772L33.36 62.299a6.537 6.537 0 00-3.407 3.667 6.413 6.413 0 00.22 4.967l.23.488a6.502 6.502 0 001.522 2.044 6.612 6.612 0 002.2 1.315 6.684 6.684 0 005.041-.218l38.789-17.82c-6.338-1.427-9.526-5.94-10.812-9.97z" fill="#917B71"/><path d="M116.334 62.937a24.528 24.528 0 01-14.001 1.682 24.328 24.328 0 01-12.574-6.295 7.944 7.944 0 01-2.287-4.02 7.863 7.863 0 01.353-4.597l16.864-42.98a7.948 7.948 0 013.543-4.04 8.133 8.133 0 015.34-.903 8.062 8.062 0 014.707 2.645 7.846 7.846 0 011.932 4.988l.925 46.07a7.88 7.88 0 01-1.258 4.44 8.056 8.056 0 01-3.544 3.01z" fill="#00D6FF"/><mask id="a" maskUnits="userSpaceOnUse" x="87" y="1" width="35" height="64"><path d="M116.334 62.937a24.528 24.528 0 01-14.001 1.682 24.328 24.328 0 01-12.574-6.295 7.944 7.944 0 01-2.287-4.02 7.863 7.863 0 01.353-4.597l16.864-42.98a7.948 7.948 0 013.543-4.04 8.133 8.133 0 015.34-.903 8.062 8.062 0 014.707 2.645 7.846 7.846 0 011.932 4.988l.925 46.07a7.88 7.88 0 01-1.258 4.44 8.056 8.056 0 01-3.544 3.01z" fill="#00D6FF"/></mask><g mask="url(#a)"><path d="M116.176-2.153c-6.015-.77-11.96 1.654-14.171 5.78L90.573 25.003c9.554-.378 21.809-2.407 36.447-8.534l-.249-9.692c-.144-4.422-4.571-8.16-10.595-8.93z" fill="#FF6862"/><path d="M88.612 26.225l12.371-23.131c2.42-4.518 8.874-7.203 15.342-6.383 6.574.84 11.446 5.06 11.566 10.03l.292 10.485-.727.3c-12.542 5.248-24.941 8.152-36.855 8.626l-1.989.073zm25.326-27.38c-4.78 0-9.17 2.07-10.905 5.31L92.535 23.764c10.785-.684 21.972-3.382 33.311-8.041l-.245-8.913c-.106-3.843-4.131-7.139-9.568-7.832a16.242 16.242 0 00-2.095-.132z" fill="#fff"/><path d="M124.532 57.284l-.384-17.054c-18.279 11.06-32.427 12.25-41.55 11.616a8.185 8.185 0 00.099 4.703 8.298 8.298 0 002.676 3.894c8.837 7.509 21.944 9.551 33.159 5.16 3.719-1.435 6.083-4.717 6-8.319z" fill="#0083D7"/><path d="M106.276 69.06c-7.927.048-15.609-2.701-21.657-7.75a9.454 9.454 0 01-3.027-4.43 9.327 9.327 0 01-.11-5.34l.255-.912.925.064c13.056.912 26.806-2.94 40.866-11.447l1.716-1.035.431 19.033c.092 4.08-2.549 7.773-6.727 9.41a34.862 34.862 0 01-12.672 2.406zM83.518 53.058a7.16 7.16 0 00.452 3.599 7.263 7.263 0 002.162 2.934c8.559 7.271 21.111 9.222 31.978 4.969 3.271-1.281 5.339-4.103 5.265-7.24l-.337-15.08c-13.533 7.837-26.802 11.48-39.52 10.818z" fill="#fff"/></g><path d="M63.225 59.563c6.7 7.869 3.868 13.449-1.624 17.985s-11.566 6.318-18.256-1.55c-6.69-7.869-11.048-21.882-5.552-26.441 5.496-4.559 18.733 2.156 25.432 10.006z" fill="#F0E4C0"/><path d="M72.6 173.16a9.258 9.258 0 01-6.396-2.514 8.986 8.986 0 01-2.821-6.189 8.968 8.968 0 012.339-6.381 9.231 9.231 0 016.183-2.983c17.382-1.317 21.745-9.168 23.512-14.962a9.007 9.007 0 011.668-3.142 9.171 9.171 0 012.764-2.269 9.275 9.275 0 013.438-1.047 9.323 9.323 0 013.582.335 9.24 9.24 0 013.176 1.666 9.083 9.083 0 012.282 2.741 8.945 8.945 0 01.671 6.922c-3.53 11.575-13.283 25.794-39.686 27.809-.24.005-.477.014-.713.014z" fill="#F5EBCD"/><path d="M231.33 111.588a14.294 14.294 0 00-7.304 1.253 14.053 14.053 0 00-5.651 4.729 6.277 6.277 0 01-2.444 2.107 6.38 6.38 0 01-3.186.628 15.043 15.043 0 00-2.165 0 14.249 14.249 0 00-6.639 2.263 13.99 13.99 0 00-4.712 5.134 13.746 13.746 0 00.255 13.407 14.007 14.007 0 004.904 4.956 14.306 14.306 0 0013.596.592 14.062 14.062 0 005.328-4.511 6.776 6.776 0 012.614-2.162 6.9 6.9 0 013.35-.642h.726a14.234 14.234 0 009.627-3.911 13.83 13.83 0 004.29-9.35 13.79 13.79 0 00-3.378-9.706 14.196 14.196 0 00-9.211-4.787zM226.883 87.54c0 2.145-.645 4.24-1.854 6.024a10.97 10.97 0 01-4.937 3.992 11.156 11.156 0 01-6.357.617 11.055 11.055 0 01-5.633-2.966 10.794 10.794 0 01-3.011-5.551 10.695 10.695 0 01.626-6.264 10.88 10.88 0 014.052-4.865 11.12 11.12 0 016.112-1.827c2.918 0 5.717 1.142 7.78 3.175a10.762 10.762 0 013.222 7.666z" fill="#AFDAEE"/><path d="M191.028 141.622l-1.512 2.89a7.197 7.197 0 01-3.794 3.37 7.33 7.33 0 01-5.108.058l-11.742-4.185a9.814 9.814 0 00-7.398.325 9.592 9.592 0 00-4.999 5.385 9.414 9.414 0 00.33 7.291 9.63 9.63 0 005.465 4.925l27.019 9.687a22.702 22.702 0 008.647 1.308 22.682 22.682 0 008.496-2.053 22.383 22.383 0 007.051-5.102 22.017 22.017 0 004.532-7.373l1.971-5.339a5.858 5.858 0 00-1.588-6.409 6.021 6.021 0 00-2.012-1.199l-17.941-6.433a6.094 6.094 0 00-4.256.045 5.982 5.982 0 00-3.161 2.809z" fill="#A38A80"/><path d="M194.318 172.535c-6.838-5.657-9.489-15.919-10.016-24.253a7.273 7.273 0 01-3.702-.323l-11.728-4.204a9.814 9.814 0 00-7.398.325 9.592 9.592 0 00-4.999 5.385 9.414 9.414 0 00.33 7.291 9.63 9.63 0 005.465 4.925l27.019 9.687c1.625.58 3.312.971 5.029 1.167z" fill="#917B71"/><path d="M178.463 147.188l-9.591-3.433a9.814 9.814 0 00-7.398.325 9.592 9.592 0 00-4.999 5.385 9.411 9.411 0 00.33 7.29 9.629 9.629 0 005.465 4.926l9.577 3.432 6.616-17.925z" fill="#FACE7C"/><path d="M75.01 73.317a3.604 3.604 0 01-2.469-1.004 3.5 3.5 0 01-1.073-2.41c-.029-.91.3-1.795.92-2.47a3.597 3.597 0 012.4-1.154l9.252-.57a3.59 3.59 0 012.592.869c.353.305.641.676.849 1.091a3.485 3.485 0 01-.522 3.883 3.57 3.57 0 01-1.108.836 3.62 3.62 0 01-1.348.355l-9.23.57-.263.004zM133.141 63.557a3.608 3.608 0 01-2.348-.856 3.51 3.51 0 01-1.202-2.164 3.479 3.479 0 01.531-2.41 3.571 3.571 0 012.005-1.477l8.874-2.557a3.624 3.624 0 012.722.286 3.538 3.538 0 011.72 2.098 3.482 3.482 0 01-.29 2.682 3.567 3.567 0 01-2.13 1.695l-8.851 2.557c-.334.1-.682.149-1.031.146z" fill="#495059"/><path d="M104.762 137.843a5.56 5.56 0 01-3.279 2.59 5.653 5.653 0 01-4.184-.402 5.713 5.713 0 01-1.738-1.434 5.613 5.613 0 01-1.038-1.985l-6.356-24.905a1.483 1.483 0 01.111-1.176 1.526 1.526 0 01.939-.734l5.552-1.623a1.538 1.538 0 011.662.493c.128.159.222.342.276.537l8.411 24.417a5.193 5.193 0 01-.356 4.222z" fill="#9C6330"/><path d="M92.201 102.101l-4.222 1.237 1.883 6.24 4.222-1.237-1.883-6.24z" fill="#B4C2D5"/><path d="M91.674 107.932l.32 1.053 2.132-.624-1.906-6.305-4.266 1.272.953 3.15a2.14 2.14 0 011.713.118 2.1 2.1 0 01.672.558c.181.23.312.495.382.778z" fill="#9FB2CA"/><path d="M94.982 61.21a23.89 23.89 0 00-13.42-2.7 23.785 23.785 0 00-12.68 5.1 23.24 23.24 0 00-7.67 11.18 22.924 22.924 0 00-.073 13.497 23.228 23.228 0 007.546 11.262 23.777 23.777 0 0012.625 5.234c4.64.477 9.32-.413 13.448-2.557a23.437 23.437 0 009.741-9.488 22.993 22.993 0 002.731-8.67 22.9 22.9 0 00-.85-9.04 23.114 23.114 0 00-4.302-8.029 23.499 23.499 0 00-7.096-5.79zM74.75 98.021a18.74 18.74 0 01-7.706-7.68 18.372 18.372 0 01-2.078-10.605 18.465 18.465 0 014.251-9.956 18.904 18.904 0 019.148-5.95 19.15 19.15 0 0110.96.06 18.895 18.895 0 019.08 6.05 18.462 18.462 0 014.14 10 18.382 18.382 0 01-2.196 10.581c-2.396 4.33-6.433 7.548-11.23 8.953a19.186 19.186 0 01-14.369-1.453z" fill="#C7D5E3"/><path opacity=".5" d="M83.744 100.269c10.428 0 18.881-8.33 18.881-18.605 0-10.274-8.453-18.604-18.88-18.604-10.428 0-18.882 8.33-18.882 18.605 0 10.274 8.454 18.604 18.881 18.604z" fill="#87B5E2"/><path opacity=".5" d="M74.57 79.166a13.346 13.346 0 016.999-4.88 13.536 13.536 0 018.568.322l.14.072c2.502.98 4.436-2.215 2.451-3.806a15.865 15.865 0 00-4.08-2.352c-5.844-2.061-12.455-.124-15.994 4.69a11.574 11.574 0 00-2.11 4.163c-.86 2.539 2.61 4.039 4.164 1.869-.218.04-.139-.078-.139-.078z" fill="#A0C3E8"/><path d="M67.773 74.904c2.396-4.328 6.432-7.546 11.227-8.952A19.193 19.193 0 0193.367 67.4c4.293 2.28 7.129 5.926 8.823 9.997a18.277 18.277 0 00-3.394-7.062 18.598 18.598 0 00-6.063-5.037 19.188 19.188 0 00-14.363-1.457c-4.796 1.402-8.833 4.617-11.23 8.943a18.675 18.675 0 00-1.208 15.222c-.842-4.308-.481-8.876 1.841-13.102z" fill="#6A9AD2"/><path d="M72.507 102.115a23.847 23.847 0 008.798 2.683c3.083.316 6.199.031 9.17-.84a23.719 23.719 0 008.145-4.235 23.333 23.333 0 005.879-6.985 1.585 1.585 0 00-1.198-.123 1.571 1.571 0 00-.935.748c-2.784 4.383-7.106 7.605-12.144 9.053a22.463 22.463 0 01-15.6-.912 1.6 1.6 0 00-1.184-.118c-.395.114-.73.376-.931.729z" fill="#B5C7D8"/><path d="M94.981 61.21a23.85 23.85 0 00-8.798-2.684 23.928 23.928 0 00-9.17.84 23.714 23.714 0 00-8.145 4.236 23.333 23.333 0 00-5.879 6.985c.367.194.797.238 1.197.121.4-.117.736-.385.936-.746a21.237 21.237 0 0111.487-8.858 23.452 23.452 0 0116.24.73 1.59 1.59 0 002.132-.625z" fill="#E2E5EE"/><path d="M105.054 133.416l-.463-1.126a5.328 5.328 0 01-.541 3.592c-.972 1.769-3.562 1.272-4.132-.62l-6.662-22.069a2.237 2.237 0 00-1.115-1.388 2.31 2.31 0 00-1.79-.162l-2.133.625 6.315 24.002a6.208 6.208 0 002.165 3.255 5.559 5.559 0 002.293.932 5.595 5.595 0 002.474-.152 5.534 5.534 0 002.158-1.205 5.422 5.422 0 001.403-2.014c.574-1.09.407-2.416.028-3.67z" fill="#90552C"/><path d="M95.972 116.398c-.139-.073-.416-.223-.462-.433l-1.587-5.252a.76.76 0 01.055-.587.777.777 0 01.46-.377.796.796 0 01.597.054.776.776 0 01.382.454l1.587 5.252a.743.743 0 01-.253.821.745.745 0 01-.275.136c-.092.151-.37.005-.504-.068z" fill="#B47533"/><path d="M106.849 134.073a9.296 9.296 0 00-6.99.694 9.145 9.145 0 00-2.763 2.247 8.99 8.99 0 00-1.679 3.117 20.659 20.659 0 01-2.34 5.188l16.812 7.454a39.834 39.834 0 003.109-7.436 8.925 8.925 0 00-.707-6.887 9.149 9.149 0 00-5.442-4.377z" fill="#495059"/></svg>
